<?xml version="1.0" encoding="UTF-8" standalone="no"?>
<!-- Created with Inkscape (http://www.inkscape.org/) -->

<svg
   width="500pt"
   height="500pt"
   viewBox="0 0 176.38889 176.38889"
   version="1.1"
   id="svg1"
   inkscape:version="1.4 (86a8ad7, 2024-10-11)"
   sodipodi:docname="decks icon.svg"
   inkscape:export-filename="decks icon.png"
   inkscape:export-xdpi="96"
   inkscape:export-ydpi="96"
   xmlns:inkscape="http://www.inkscape.org/namespaces/inkscape"
   xmlns:sodipodi="http://sodipodi.sourceforge.net/DTD/sodipodi-0.dtd"
   xmlns="http://www.w3.org/2000/svg"
   xmlns:svg="http://www.w3.org/2000/svg">
  <sodipodi:namedview
     id="namedview1"
     pagecolor="#ffffff"
     bordercolor="#111111"
     borderopacity="1"
     inkscape:showpageshadow="0"
     inkscape:pageopacity="0"
     inkscape:pagecheckerboard="1"
     inkscape:deskcolor="#d1d1d1"
     inkscape:document-units="pt"
     inkscape:zoom="0.71891835"
     inkscape:cx="162.74449"
     inkscape:cy="305.31979"
     inkscape:window-width="1920"
     inkscape:window-height="1009"
     inkscape:window-x="-8"
     inkscape:window-y="-8"
     inkscape:window-maximized="1"
     inkscape:current-layer="layer1" />
  <defs
     id="defs1">
    <inkscape:path-effect
       effect="fillet_chamfer"
       id="path-effect1"
       is_visible="true"
       lpeversion="1"
       nodesatellites_param="F,0,0,1,0,17.777128,0,1 @ F,0,0,1,0,19.329285,0,1 @ F,0,0,1,0,19.725173,0,1 @ F,0,0,1,0,19.980254,0,1"
       radius="0"
       unit="px"
       method="auto"
       mode="F"
       chamfer_steps="1"
       flexible="false"
       use_knot_distance="true"
       apply_no_radius="true"
       apply_with_radius="true"
       only_selected="false"
       hide_knots="false" />
    <inkscape:path-effect
       effect="fillet_chamfer"
       id="path-effect1-4"
       is_visible="true"
       lpeversion="1"
       nodesatellites_param="F,0,0,1,0,17.777128,0,1 @ F,0,0,1,0,19.329285,0,1 @ F,0,0,1,0,19.725173,0,1 @ F,0,0,1,0,19.980254,0,1"
       radius="0"
       unit="px"
       method="auto"
       mode="F"
       chamfer_steps="1"
       flexible="false"
       use_knot_distance="true"
       apply_no_radius="true"
       apply_with_radius="true"
       only_selected="false"
       hide_knots="false" />
    <inkscape:path-effect
       effect="fillet_chamfer"
       id="path-effect1-5"
       is_visible="true"
       lpeversion="1"
       nodesatellites_param="F,0,0,1,0,17.777128,0,1 @ F,0,0,1,0,19.329285,0,1 @ F,0,0,1,0,19.725173,0,1 @ F,0,0,1,0,19.980254,0,1"
       radius="0"
       unit="px"
       method="auto"
       mode="F"
       chamfer_steps="1"
       flexible="false"
       use_knot_distance="true"
       apply_no_radius="true"
       apply_with_radius="true"
       only_selected="false"
       hide_knots="false" />
    <inkscape:path-effect
       effect="fillet_chamfer"
       id="path-effect1-4-1"
       is_visible="true"
       lpeversion="1"
       nodesatellites_param="F,0,0,1,0,17.777128,0,1 @ F,0,0,1,0,19.329285,0,1 @ F,0,0,1,0,19.725173,0,1 @ F,0,0,1,0,19.980254,0,1"
       radius="0"
       unit="px"
       method="auto"
       mode="F"
       chamfer_steps="1"
       flexible="false"
       use_knot_distance="true"
       apply_no_radius="true"
       apply_with_radius="true"
       only_selected="false"
       hide_knots="false" />
    <inkscape:path-effect
       effect="fillet_chamfer"
       id="path-effect1-5-2"
       is_visible="true"
       lpeversion="1"
       nodesatellites_param="F,0,0,1,0,17.777128,0,1 @ F,0,0,1,0,19.329285,0,1 @ F,0,0,1,0,19.725173,0,1 @ F,0,0,1,0,19.980254,0,1"
       radius="0"
       unit="px"
       method="auto"
       mode="F"
       chamfer_steps="1"
       flexible="false"
       use_knot_distance="true"
       apply_no_radius="true"
       apply_with_radius="true"
       only_selected="false"
       hide_knots="false" />
  </defs>
  <g
     inkscape:label="Layer 1"
     inkscape:groupmode="layer"
     id="layer1">
    <path
       id="rect1"
       style="fill:#ffffff;stroke:#ffffff;stroke-width:0;stroke-linecap:round;stroke-opacity:0"
       d="M 126.168 -61.943329 A 19.329285 19.329285 0 0 0 122.78395 -59.244846 L 97.498087 -33.959004 A 17.777128 17.777128 0 0 0 97.498058 -8.8184307 L 149.74192 43.425391 A 19.980254 19.980254 45 0 0 177.99826 43.425379 L 201.44646 19.977671 A 19.725173 19.725173 0 0 0 201.44628 -7.9181898 L 150.11979 -59.244587 A 19.329285 19.329285 0 0 0 126.168 -61.943329 z M 94.569004 -1.4809528 A 17.777128 17.777128 9.2174744 0 0 91.886146 13.355935 L 111.00872 84.722428 A 19.980254 19.980254 45 0 0 135.47942 98.850936 L 167.51006 90.268411 A 19.725173 19.725173 0 0 0 181.45769 66.109752 L 178.25676 54.16415 A 22.970393 23.859181 60.006861 0 1 148.72323 51.638172 L 94.569004 -1.4809528 z M 85.618886 19.032438 A 17.777128 17.777128 0 0 0 76.730302 34.427903 L 76.730027 108.31212 A 19.980254 19.980254 0 0 0 96.710683 128.29243 L 129.8715 128.29219 A 19.725173 19.725173 0 0 0 149.59646 108.56692 L 149.59639 103.93563 L 134.06165 108.25888 A 22.960234 23.877257 60.006838 0 1 105.3796 92.348058 L 86.428775 18.69684 A 17.777128 17.777128 0 0 0 85.618886 19.032438 z "
       transform="rotate(29.993148,7.6968398,-14.353179)" />
  </g>
</svg>
