<?xml version="1.0" encoding="UTF-8" standalone="no"?>
<!-- Created with Inkscape (http://www.inkscape.org/) -->

<svg
   width="600pt"
   height="600pt"
   viewBox="0 0 211.66666 211.66666"
   version="1.1"
   id="svg1"
   inkscape:version="1.4 (86a8ad7, 2024-10-11)"
   sodipodi:docname="decks outlined icon.svg"
   inkscape:export-filename="decks outlined icon.png"
   inkscape:export-xdpi="96"
   inkscape:export-ydpi="96"
   xmlns:inkscape="http://www.inkscape.org/namespaces/inkscape"
   xmlns:sodipodi="http://sodipodi.sourceforge.net/DTD/sodipodi-0.dtd"
   xmlns="http://www.w3.org/2000/svg"
   xmlns:svg="http://www.w3.org/2000/svg">
  <sodipodi:namedview
     id="namedview1"
     pagecolor="#ffffff"
     bordercolor="#111111"
     borderopacity="1"
     inkscape:showpageshadow="0"
     inkscape:pageopacity="0"
     inkscape:pagecheckerboard="1"
     inkscape:deskcolor="#d1d1d1"
     inkscape:document-units="pt"
     inkscape:zoom="1.0167041"
     inkscape:cx="376.70745"
     inkscape:cy="402.77206"
     inkscape:window-width="1920"
     inkscape:window-height="1009"
     inkscape:window-x="-8"
     inkscape:window-y="-8"
     inkscape:window-maximized="1"
     inkscape:current-layer="rect1" />
  <defs
     id="defs1" />
  <g
     inkscape:label="Layer 1"
     inkscape:groupmode="layer"
     id="layer1">
    <g
       id="rect1">
      <path
         id="path2"
         style="display:inline;fill:#ffffff;stroke-linecap:round;stroke-linejoin:round"
         d="M 151.51581 16.216581 C 149.69542 16.284851 147.88862 16.55783 146.12906 17.029451 L 111.58802 26.288834 C 99.808365 29.446718 92.702688 41.448859 95.33423 53.245844 A 5.0005 5.0005 0 0 0 92.023321 53.238092 C 86.154351 55.93322 81.788695 61.028458 79.866957 67.165924 A 5.0005 5.0005 0 0 0 77.748223 66.250218 C 77.378258 66.192298 77.005417 66.143069 76.633046 66.103457 A 5.0005 5.0005 0 0 0 76.103363 66.076068 C 67.973879 66.077025 60.444949 70.42576 56.381053 77.466587 L 19.445324 141.45493 C 12.578108 153.3525 16.695871 168.71097 28.593603 175.57791 L 57.312262 192.15622 C 69.087681 198.95271 84.291415 194.87686 91.087977 183.10148 L 93.402565 179.08984 A 5.0005 5.0005 0 0 0 93.212912 174.00953 L 110.12506 178.53897 C 123.25848 182.05633 136.88926 174.1841 140.40641 161.05063 L 143.6057 149.10562 A 5.0005 5.0005 0 0 0 141.54278 143.80672 C 142.76623 143.66953 143.9916 143.53883 145.2149 143.21089 L 177.24396 134.62485 C 190.37655 131.10433 198.24323 117.47241 194.72248 104.33988 L 175.92776 34.230468 C 172.99584 23.293403 162.83107 15.791802 151.51581 16.216581 z M 151.7034 21.213692 A 19.329285 19.329285 0 0 1 171.09859 35.524445 L 189.89383 105.63541 A 19.725173 19.725173 0 0 1 175.94894 129.79569 L 143.91938 138.38173 A 19.980254 19.980254 0 0 1 119.44697 124.25649 L 100.31584 52.892377 A 17.777128 17.777128 0 0 1 112.88355 31.118513 L 147.42355 21.85913 A 19.329285 19.329285 0 0 1 151.7034 21.213692 z M 94.111048 57.783034 L 114.45916 130.86023 A 23.859181 22.970393 8.9999999e-06 0 0 138.77499 147.81164 L 135.5757 159.75769 A 19.725173 19.725173 0 0 1 111.41904 173.70877 L 79.3874 165.12997 A 19.980254 19.980254 0 0 1 65.25648 140.66066 L 84.370558 69.291892 A 17.777128 17.777128 0 0 1 94.111048 57.783034 z M 76.104913 71.075246 A 17.777128 17.777128 0 0 1 76.974111 71.189451 L 56.569155 144.45113 A 22.960234 23.877257 89.999986 0 0 73.456496 172.56931 L 89.07208 176.59077 L 86.756976 180.60189 A 19.725173 19.725173 0 0 1 59.812885 187.82522 L 31.092675 171.24846 A 19.980254 19.980254 0 0 1 23.775809 143.95555 L 60.710504 79.965659 A 17.777128 17.777128 0 0 1 76.104913 71.075246 z M 61.423639 154.96676 C 62.948342 158.80226 65.383857 162.22513 68.566355 164.91034 C 64.985873 162.46665 62.512576 158.94532 61.423639 154.96676 z " />
    </g>
  </g>
</svg>
