<?xml version="1.0" encoding="UTF-8" standalone="no"?>
<!-- Created with Inkscape (http://www.inkscape.org/) -->

<svg
   width="600pt"
   height="600pt"
   viewBox="0 0 211.66667 211.66667"
   version="1.1"
   id="svg1"
   inkscape:version="1.4 (86a8ad7, 2024-10-11)"
   sodipodi:docname="profile outlined icon.svg"
   inkscape:export-filename="profile outlined icon.png"
   inkscape:export-xdpi="96"
   inkscape:export-ydpi="96"
   xmlns:inkscape="http://www.inkscape.org/namespaces/inkscape"
   xmlns:sodipodi="http://sodipodi.sourceforge.net/DTD/sodipodi-0.dtd"
   xmlns="http://www.w3.org/2000/svg"
   xmlns:svg="http://www.w3.org/2000/svg">
  <sodipodi:namedview
     id="namedview1"
     pagecolor="#ffffff"
     bordercolor="#111111"
     borderopacity="1"
     inkscape:showpageshadow="0"
     inkscape:pageopacity="0"
     inkscape:pagecheckerboard="1"
     inkscape:deskcolor="#d1d1d1"
     inkscape:document-units="pt"
     inkscape:zoom="0.71891835"
     inkscape:cx="353.30855"
     inkscape:cy="324.098"
     inkscape:window-width="1147"
     inkscape:window-height="1000"
     inkscape:window-x="764"
     inkscape:window-y="0"
     inkscape:window-maximized="0"
     inkscape:current-layer="layer1" />
  <defs
     id="defs1" />
  <g
     inkscape:label="Layer 1"
     inkscape:groupmode="layer"
     id="layer1">
    <path
       id="path3"
       style="fill:#ffffff;fill-opacity:1;stroke-linejoin:round;paint-order:markers fill stroke"
       d="m 106.90666,14.779722 c -31.455064,5.2e-5 -57.068303,25.613289 -57.068353,57.06835 1.8e-5,11.20491 3.295804,21.636224 8.902299,30.464808 a 5.2921957,5.2921957 0 0 0 -4.675683,1.83761 c -8.136277,10.50794 -12.967131,23.19689 -13.880806,36.45514 a 5.2921957,5.2921957 0 0 0 0.343648,0.96893 c -13.487336,1.9371 -24.029582,13.37782 -24.265702,27.36888 a 5.2921957,5.2921957 0 0 0 0.675928,1.8774 5.2921957,5.2921957 0 0 0 -0.595829,1.43712 v 6.03943 a 5.2921957,5.2921957 0 0 0 5.293216,5.2927 h 30.281355 c 11.054801,0 20.993633,4.47117 28.212743,11.71298 a 5.2921957,5.2921957 0 0 0 3.7481,1.55649 h 10.41228 a 5.2921957,5.2921957 0 0 0 3.222541,-1.27899 5.2921957,5.2921957 0 0 0 2.2655,1.30638 h 6.056473 6.05493 a 5.2921957,5.2921957 0 0 0 2.83807,-1.63659 5.2921957,5.2921957 0 0 0 2.64842,1.60713 h 10.41383 a 5.2921957,5.2921957 0 0 0 3.74809,-1.55442 c 7.21912,-7.24181 17.15795,-11.71505 28.21275,-11.71505 h 30.28135 a 5.2921957,5.2921957 0 0 0 5.29115,-5.29063 v -6.03943 a 5.2921957,5.2921957 0 0 0 -0.43356,-1.04851 5.2921957,5.2921957 0 0 0 0.51521,-2.26756 c -0.22238,-13.17747 -9.57993,-24.13905 -21.93354,-26.99422 a 5.2921957,5.2921957 0 0 0 0.18552,-1.24799 c -0.83519,-13.3306 -5.63717,-26.10898 -13.78883,-36.68975 a 5.2921957,5.2921957 0 0 0 -4.71495,-1.82986 c 5.55527,-8.800833 8.82064,-19.182817 8.82065,-30.331998 -5e-5,-31.455058 -25.61174,-57.068294 -57.0668,-57.06835 z m -5.2e-4,5.291666 A 51.776383,51.776379 0 0 1 158.68231,71.847554 51.776383,51.776379 0 0 1 106.90614,123.62372 51.776383,51.776379 0 0 1 55.129974,71.847554 51.776383,51.776379 0 0 1 106.90614,20.071388 Z m 6.41718,60.805073 v 2.508374 c -1.81061,-0.909813 -3.72536,-1.543302 -5.77742,-1.688269 -2.24755,-0.158779 -4.6099,0.304719 -7.03575,1.521354 v -2.317172 h -4.251934 v 5.147489 l -0.12351,0.09405 0.12351,0.161746 v 7.123079 h -31.01 V 80.900748 h -3.838005 v 11.81995 a 4.9228021,4.9228021 0 0 0 4.922175,4.922697 h 29.78992 a 4.3877525,4.3877525 0 0 0 4.387844,-4.387846 v -6.461621 c 2.53416,-1.641866 4.72964,-2.137864 6.81457,-1.990575 2.01413,0.142287 3.9956,0.933228 5.9986,2.141987 v 5.75107 a 4.9228021,4.9228021 0 0 0 4.92218,4.923214 h 29.79043 a 4.3877525,4.3877525 0 0 0 4.38733,-4.388362 V 80.876461 h -4.25194 v 12.526366 h -31.00999 v -6.772196 l 0.41393,-0.609782 -0.41393,-0.281637 V 80.87646 Z m 42.35194,26.363769 a 61.68696,61.68696 0 0 1 12.7,33.79018 c -0.39218,-0.0167 -0.77814,-0.0599 -1.17409,-0.0605 a 5.4956501,5.4956501 0 0 0 -0.008,0 h -16.23002 c -19.79693,5e-5 -36.81618,11.55716 -45.13161,28.17606 C 97.516356,152.52805 80.500416,140.97024 60.704311,140.96995 H 45.462347 a 61.787079,61.787079 0 0 1 12.786816,-33.57935 60.405776,60.405772 0 0 0 48.656977,24.86309 60.405776,60.405772 0 0 0 48.76912,-25.01346 z m -4.71186,39.22448 h 16.23105 a 22.954294,22.954294 0 0 1 22.92005,22.56709 c -7e-5,0 -0.006,0.005 -22.92057,0.005 v -5.2e-4 H 150.9634 c -16.69877,0 -31.26836,9.07628 -39.07358,22.5578 h -6.05596 a 45.130235,45.130235 0 0 1 0,0.001 H 99.777377 C 91.972146,178.11355 77.402566,169.03697 60.703794,169.03697 H 44.47326 v 5.2e-4 c -22.91435,0 -22.920491,-0.005 -22.920564,-0.005 a 22.954294,22.954294 0 0 1 22.920048,-22.5671 h 16.23105 a 45.130235,45.130235 0 0 1 45.129546,45.12541 45.130235,45.130235 0 0 1 45.13006,-45.12644 z m 3.41788,25.79274 h 35.65053 v 6.03942 h -30.28083 c -12.48796,0 -23.79046,5.07341 -31.96136,13.26999 h -10.41331 c 8.1582,-11.67003 21.68574,-19.30941 37.00497,-19.30941 z m -132.746417,0.001 h 35.650536 c 15.319238,0 28.846768,7.63945 37.004978,19.30941 h -10.41332 c -8.17089,-8.19659 -19.4734,-13.26999 -31.961356,-13.26999 H 21.634862 Z" />
  </g>
</svg>
