<?xml version="1.0" encoding="UTF-8" standalone="no"?>
<!-- Created with Inkscape (http://www.inkscape.org/) -->

<svg
   width="500pt"
   height="500pt"
   viewBox="0 0 176.38889 176.38889"
   version="1.1"
   id="svg1"
   inkscape:version="1.4 (86a8ad7, 2024-10-11)"
   sodipodi:docname="profile icon.svg"
   inkscape:export-filename="profile icon.png"
   inkscape:export-xdpi="96"
   inkscape:export-ydpi="96"
   xmlns:inkscape="http://www.inkscape.org/namespaces/inkscape"
   xmlns:sodipodi="http://sodipodi.sourceforge.net/DTD/sodipodi-0.dtd"
   xmlns="http://www.w3.org/2000/svg"
   xmlns:svg="http://www.w3.org/2000/svg">
  <sodipodi:namedview
     id="namedview1"
     pagecolor="#ffffff"
     bordercolor="#111111"
     borderopacity="1"
     inkscape:showpageshadow="0"
     inkscape:pageopacity="0"
     inkscape:pagecheckerboard="1"
     inkscape:deskcolor="#d1d1d1"
     inkscape:document-units="pt"
     inkscape:zoom="1"
     inkscape:cx="256"
     inkscape:cy="335.5"
     inkscape:window-width="1920"
     inkscape:window-height="1009"
     inkscape:window-x="-8"
     inkscape:window-y="-8"
     inkscape:window-maximized="1"
     inkscape:current-layer="layer1" />
  <defs
     id="defs1">
    <inkscape:path-effect
       effect="fillet_chamfer"
       id="path-effect11"
       is_visible="true"
       lpeversion="1"
       nodesatellites_param="F,0,0,1,0,22.104503,0,1 @ F,0,0,1,0,43.459469,0,1 @ F,0,0,1,0,0,0,1 @ F,0,0,1,0,0,0,1"
       radius="0"
       unit="px"
       method="auto"
       mode="F"
       chamfer_steps="1"
       flexible="false"
       use_knot_distance="true"
       apply_no_radius="true"
       apply_with_radius="true"
       only_selected="false"
       hide_knots="false" />
    <inkscape:path-effect
       effect="fillet_chamfer"
       id="path-effect7"
       is_visible="true"
       lpeversion="1"
       nodesatellites_param="F,0,0,1,0,0,0,1 @ F,0,0,1,0,0,0,1 @ F,0,0,1,0,4.2253135,0,1 @ F,0,0,1,0,4.7405551,0,1"
       radius="0"
       unit="px"
       method="auto"
       mode="F"
       chamfer_steps="1"
       flexible="false"
       use_knot_distance="true"
       apply_no_radius="true"
       apply_with_radius="true"
       only_selected="false"
       hide_knots="false" />
    <inkscape:path-effect
       effect="fillet_chamfer"
       id="path-effect4"
       is_visible="true"
       lpeversion="1"
       nodesatellites_param="F,0,0,1,0,59.49966,0,1 @ F,0,0,1,0,59.403248,0,1 @ F,0,0,1,0,17.861849,0,1 @ F,0,0,1,0,17.861849,0,1"
       radius="50.632015"
       unit="pt"
       method="auto"
       mode="F"
       chamfer_steps="1"
       flexible="false"
       use_knot_distance="true"
       apply_no_radius="true"
       apply_with_radius="true"
       only_selected="false"
       hide_knots="false" />
    <inkscape:path-effect
       effect="fillet_chamfer"
       id="path-effect3"
       is_visible="true"
       lpeversion="1"
       nodesatellites_param="F,0,0,1,0,0,0,1 @ F,0,0,1,0,0,0,1 @ F,0,0,1,0,0,0,1 @ F,0,0,1,0,0,0,1"
       radius="0"
       unit="px"
       method="auto"
       mode="F"
       chamfer_steps="1"
       flexible="false"
       use_knot_distance="true"
       apply_no_radius="true"
       apply_with_radius="true"
       only_selected="false"
       hide_knots="false" />
    <inkscape:path-effect
       effect="fillet_chamfer"
       id="path-effect11-6"
       is_visible="true"
       lpeversion="1"
       nodesatellites_param="F,0,0,1,0,22.104503,0,1 @ F,0,0,1,0,43.459469,0,1 @ F,0,0,1,0,0,0,1 @ F,0,0,1,0,0,0,1"
       radius="0"
       unit="px"
       method="auto"
       mode="F"
       chamfer_steps="1"
       flexible="false"
       use_knot_distance="true"
       apply_no_radius="true"
       apply_with_radius="true"
       only_selected="false"
       hide_knots="false" />
  </defs>
  <g
     inkscape:label="Layer 1"
     inkscape:groupmode="layer"
     id="layer1">
    <g
       id="path5">
      <path
         style="fill:#ffffff;stroke-linejoin:round;paint-order:markers fill stroke"
         d="M 89.266899,2.4324112 A 51.776383,51.776379 0 0 0 37.490601,54.208707 51.776383,51.776379 0 0 0 89.266899,105.985 51.776383,51.776379 0 0 0 141.04319,54.208707 51.776383,51.776379 0 0 0 89.266899,2.4324112 Z m 6.417032,60.8051118 h 3.837984 v 4.86295 l 0.414276,0.281195 -0.414276,0.61015 v 6.77228 H 130.53221 V 63.237523 h 4.25172 v 12.354854 a 4.3877525,4.3877525 0 0 1 -4.38748,4.388031 h -29.79001 a 4.9228021,4.9228021 0 0 1 -4.922509,-4.923051 v -5.751075 c -2.003002,-1.208759 -3.984336,-1.999406 -5.99846,-2.141694 -2.084932,-0.147289 -4.280517,0.348498 -6.814676,1.990364 v 6.461574 a 4.3877525,4.3877525 0 0 1 -4.387494,4.388031 H 48.693309 A 4.9228021,4.9228021 0 0 1 43.770793,75.081504 V 63.261672 h 3.837984 v 12.526576 h 31.01029 v -7.123239 l -0.123425,-0.161527 0.123425,-0.09444 v -5.147364 h 4.251728 v 2.317173 c 2.425844,-1.216635 4.788214,-1.680128 7.035767,-1.521349 2.052058,0.144967 3.966757,0.778427 5.777369,1.68824 z M 138.03592,89.601127 A 60.405776,60.405772 0 0 1 89.266899,114.61456 60.405776,60.405772 0 0 1 40.610036,89.751384 61.787079,61.787079 0 0 0 27.823195,123.33106 h 15.241927 c 19.796109,2.9e-4 36.812011,11.55784 45.127441,28.1758 8.315431,-16.6189 25.334797,-28.17575 45.131727,-28.1758 h 16.22987 a 5.4956501,5.4956501 0 0 1 0.008,0 c 0.39595,5.4e-4 0.78143,0.0439 1.17361,0.0606 A 61.68696,61.68696 0 0 0 138.03592,89.601127 Z m -4.71163,39.224493 A 45.130235,45.130235 0 0 0 88.194174,173.952 45.130235,45.130235 0 0 0 43.064587,128.8267 H 26.833647 A 22.954294,22.954294 0 0 0 3.9136037,151.39364 c 7.27e-5,1e-5 0.00623,0.005 22.9205803,0.005 v -5.3e-4 h 16.230403 c 16.698775,0 31.268478,9.07663 39.073705,22.55836 h 6.056417 a 45.130235,45.130235 0 0 0 0,-0.001 h 6.055881 c 7.80522,-13.48152 22.37493,-22.55814 39.0737,-22.55814 h 16.23041 v 5.4e-4 c 22.91436,0 22.92051,-0.005 22.92058,-0.005 a 22.954294,22.954294 0 0 0 -22.92004,-22.56694 z m 3.41781,25.79263 c -15.31923,0 -28.84679,7.63956 -37.004999,19.30959 h 10.413319 c 8.1709,-8.19658 19.47325,-13.26981 31.96121,-13.26981 h 30.28102 v -6.03978 z m -132.7463918,0.001 v 6.03978 H 34.276718 c 12.487957,0 23.790307,5.07322 31.961201,13.26981 H 76.651241 C 68.493037,162.25888 54.96548,154.61933 39.646247,154.61933 Z"
         id="path1" />
    </g>
  </g>
</svg>
