<?xml version="1.0" encoding="UTF-8" standalone="no"?>
<!-- Created with Inkscape (http://www.inkscape.org/) -->

<svg
   width="600pt"
   height="600pt"
   viewBox="0 0 211.66666 211.66665"
   version="1.1"
   id="svg1"
   xml:space="preserve"
   inkscape:version="1.4 (86a8ad7, 2024-10-11)"
   sodipodi:docname="sapp logo.svg"
   inkscape:export-filename="sapp logo.png"
   inkscape:export-xdpi="96"
   inkscape:export-ydpi="96"
   xmlns:inkscape="http://www.inkscape.org/namespaces/inkscape"
   xmlns:sodipodi="http://sodipodi.sourceforge.net/DTD/sodipodi-0.dtd"
   xmlns="http://www.w3.org/2000/svg"
   xmlns:svg="http://www.w3.org/2000/svg"><sodipodi:namedview
     id="namedview1"
     pagecolor="#ffffff"
     bordercolor="#111111"
     borderopacity="1"
     inkscape:showpageshadow="0"
     inkscape:pageopacity="0"
     inkscape:pagecheckerboard="1"
     inkscape:deskcolor="#d1d1d1"
     inkscape:document-units="pt"
     inkscape:zoom="1"
     inkscape:cx="291"
     inkscape:cy="357.5"
     inkscape:window-width="1920"
     inkscape:window-height="1009"
     inkscape:window-x="-8"
     inkscape:window-y="-8"
     inkscape:window-maximized="1"
     inkscape:current-layer="svg1" /><defs
     id="defs1" /><path
     id="path1"
     style="display:inline;fill:#ffffff;stroke-width:0.290678;fill-opacity:1"
     inkscape:label="large ring"
     d="M 105.83333 0 A 105.83334 105.83333 0 0 0 0 105.83333 A 105.83334 105.83333 0 0 0 105.83333 211.66665 A 105.83334 105.83333 0 0 0 211.66665 105.83333 A 105.83334 105.83333 0 0 0 105.83333 0 z M 105.83384 14.111283 C 156.4175 14.111281 197.55486 55.250234 197.55486 105.83384 C 197.55486 156.4175 156.4175 197.55486 105.83384 197.55486 C 55.250234 197.55486 14.111281 156.4175 14.111283 105.83384 C 14.111282 55.250234 55.250234 14.111282 105.83384 14.111283 z M 105.83384 26.458849 C 61.923157 26.458848 26.458848 61.923157 26.458849 105.83384 C 26.458848 147.81108 58.875482 182.04539 100.09156 184.98095 L 100.09156 146.65047 L 45.46699 92.025386 A 6.2456002 6.2456002 0 0 1 45.46699 83.193367 A 6.2456002 6.2456002 0 0 1 49.882741 81.363505 A 6.2456002 6.2456002 0 0 1 54.299008 83.193367 L 100.09156 128.98488 L 100.09156 113.12074 L 58.365426 71.392538 A 6.1736002 6.1736002 0 0 1 58.365426 62.662322 A 6.1736002 6.1736002 0 0 1 62.730534 60.853647 A 6.1736002 6.1736002 0 0 1 67.095642 62.662322 L 100.09156 95.659272 L 100.09156 45.697467 A 6.1736002 6.1736002 0 0 1 106.26586 39.523684 A 6.1736002 6.1736002 0 0 1 112.43964 45.697467 L 112.43964 95.831871 L 145.39473 62.876779 A 6.1736002 6.1736002 0 0 1 149.75984 61.068104 A 6.1736002 6.1736002 0 0 1 154.12495 62.876779 A 6.1736002 6.1736002 0 0 1 154.12495 71.607512 L 112.43964 113.29489 L 112.43964 129.0779 L 158.34588 83.171663 A 6.1736002 6.1736002 0 0 1 162.71099 81.363505 A 6.1736002 6.1736002 0 0 1 167.0761 83.171663 A 6.1736002 6.1736002 0 0 1 167.0761 91.902396 L 112.43964 146.53885 L 112.43964 184.91532 C 153.24403 181.5664 185.20884 147.51752 185.20884 105.83384 C 185.20884 61.923157 149.74457 26.458848 105.83384 26.458849 z M 86.091381 50.754522 C 89.988124 50.754332 93.147186 53.913162 93.147281 57.809905 C 93.147471 61.70685 89.988326 64.865995 86.091381 64.865805 C 82.194638 64.86571 79.035808 61.706648 79.035998 57.809905 C 79.036093 53.913364 82.19484 50.754617 86.091381 50.754522 z M 127.36328 50.853224 C 131.26002 50.853034 134.41908 54.011864 134.41918 57.908607 C 134.41937 61.805552 131.26022 64.964697 127.36328 64.964507 C 123.46654 64.96441 120.30771 61.805349 120.3079 57.908607 C 120.308 54.012067 123.46674 50.853321 127.36328 50.853224 z M 53.00503 117.12204 C 56.901703 117.12204 60.06041 120.28127 60.060413 124.17794 C 60.060416 128.07462 56.901707 131.23333 53.00503 131.23333 C 49.108353 131.23333 45.949128 128.07462 45.949131 124.17794 C 45.949134 120.28127 49.108357 117.12204 53.00503 117.12204 z M 159.41145 117.12204 C 163.30813 117.12204 166.46683 120.28126 166.46683 124.17794 C 166.46683 128.07462 163.30813 131.23333 159.41145 131.23333 C 155.51477 131.23333 152.35607 128.07462 152.35607 124.17794 C 152.35607 120.28127 155.51478 117.12204 159.41145 117.12204 z M 75.626904 139.61163 C 79.523581 139.61163 82.68229 142.77085 82.682287 146.66753 C 82.682284 150.5642 79.523577 153.72291 75.626904 153.72291 C 71.730231 153.72291 68.571008 150.5642 68.571005 146.66753 C 68.571002 142.77085 71.730227 139.61163 75.626904 139.61163 z M 136.92187 139.74392 C 140.81855 139.74392 143.97725 142.90314 143.97725 146.79982 C 143.97725 150.6965 140.81855 153.8552 136.92187 153.8552 C 133.02519 153.8552 129.86648 150.6965 129.86648 146.79982 C 129.86648 142.90315 133.0252 139.74392 136.92187 139.74392 z " /></svg>
