<?xml version="1.0" encoding="UTF-8" standalone="no"?>
<!-- Created with Inkscape (http://www.inkscape.org/) -->

<svg
   width="600pt"
   height="600pt"
   viewBox="0 0 211.66666 211.66666"
   version="1.1"
   id="svg1"
   sodipodi:docname="timers outlined icon.svg"
   inkscape:version="1.4 (86a8ad7, 2024-10-11)"
   inkscape:export-filename="timers outlined icon.png"
   inkscape:export-xdpi="96"
   inkscape:export-ydpi="96"
   xmlns:inkscape="http://www.inkscape.org/namespaces/inkscape"
   xmlns:sodipodi="http://sodipodi.sourceforge.net/DTD/sodipodi-0.dtd"
   xmlns="http://www.w3.org/2000/svg"
   xmlns:svg="http://www.w3.org/2000/svg">
  <sodipodi:namedview
     id="namedview1"
     pagecolor="#ffffff"
     bordercolor="#111111"
     borderopacity="1"
     inkscape:showpageshadow="0"
     inkscape:pageopacity="0"
     inkscape:pagecheckerboard="1"
     inkscape:deskcolor="#d1d1d1"
     inkscape:document-units="pt"
     inkscape:zoom="0.71891835"
     inkscape:cx="215.60167"
     inkscape:cy="388.7785"
     inkscape:window-width="1920"
     inkscape:window-height="1009"
     inkscape:window-x="-8"
     inkscape:window-y="-8"
     inkscape:window-maximized="1"
     inkscape:current-layer="path1" />
  <defs
     id="defs1" />
  <g
     inkscape:label="Layer 1"
     inkscape:groupmode="layer"
     id="layer1">
    <g
       inkscape:label="Layer 1"
       inkscape:groupmode="layer"
       id="layer1-4"
       style="display:none"
       transform="translate(71.671819,-35.057525)">
      <rect
         style="fill:#000000;stroke:#ffffff;stroke-width:0;stroke-linecap:round;stroke-opacity:0"
         id="rect1"
         width="179.56306"
         height="179.82329"
         x="-1.3011817"
         y="-1.0409453" />
    </g>
    <g
       inkscape:groupmode="layer"
       id="layer2"
       inkscape:label="Layer 2"
       style="display:none;fill:#f9f9f9"
       transform="translate(71.671819,-35.057525)" />
    <g
       id="path1">
      <path
         id="path5"
         style="fill:#ffffff;stroke-linecap:round;stroke-linejoin:round;fill-opacity:1"
         d="M 127.49506 15.41818 C 119.67467 15.576624 112.48597 20.676388 110.38861 28.503686 A 5.0005 5.0005 0 0 0 110.38447 28.517638 C 109.35884 32.386543 109.77998 36.33003 111.27331 39.830126 C 102.05176 39.182453 92.796883 40.176584 83.917873 42.756045 A 5.0005 5.0005 0 0 0 84.005722 37.578067 L 83.960764 37.50572 A 5.0005 5.0005 0 0 0 83.958697 37.502102 C 79.952104 30.913183 71.37595 28.615631 64.611558 32.31844 L 57.435769 36.245848 L 57.599583 36.160066 C 50.48214 39.719283 47.693053 48.685959 51.572044 55.634845 A 5.0005 5.0005 0 0 0 55.726313 57.872951 C 43.40463 68.116022 34.377646 81.900554 30.126842 97.549081 A 5.0005 5.0005 0 0 0 30.121158 97.564584 C 18.929402 139.332 43.793224 182.39444 85.560666 193.58611 C 127.3283 204.77793 170.39077 179.91641 181.58219 138.14867 A 5.0005 5.0005 0 0 0 181.58374 138.13833 C 191.40198 101.20539 173.00988 63.199138 139.42198 47.259646 C 142.41666 44.968883 144.73136 41.802655 145.75596 37.980109 C 148.31257 28.438496 142.28902 18.623575 132.67975 16.048632 C 131.47856 15.726743 130.26803 15.530556 129.06654 15.452803 L 129.06654 15.45332 C 128.54088 15.419303 128.01642 15.407617 127.49506 15.41818 z M 127.25063 20.419942 A 13.307108 12.799482 15 0 1 131.38474 20.878828 A 13.307108 12.799482 15 0 1 140.92576 36.686648 A 13.307108 12.799482 15 0 1 127.91415 46.069021 L 127.43666 47.851341 A 73.401626 73.401626 0 0 1 176.75251 136.85417 A 73.401626 73.401626 0 0 1 86.854127 188.75746 A 73.401626 73.401626 0 0 1 34.951354 98.858562 A 73.401626 73.401626 0 0 1 68.114186 55.103095 L 64.354209 48.590831 L 55.939219 53.197268 A 9.7359816 9.3022191 15 0 1 59.836139 40.631627 L 67.011411 36.704218 A 9.2791855 8.8657744 15 0 1 79.68764 40.10091 L 79.732082 40.173774 L 71.599762 44.625182 L 75.389194 51.188605 A 73.401626 73.401626 0 0 1 121.7197 46.352725 L 122.18944 44.598827 A 13.307108 12.799482 15 0 1 115.21829 29.79818 A 13.307108 12.799482 15 0 1 127.25063 20.419942 z M 126.5623 22.890592 A 10.812026 10.399579 15 0 0 117.62796 30.443619 A 10.812026 10.399579 15 0 0 122.82712 42.219644 L 123.27619 40.542744 L 123.13408 40.504503 A 1.9188253 1.9188253 0 0 1 121.77758 38.153742 A 4.6424205 4.6424205 0 0 1 127.80615 35.554935 L 128.71669 35.798847 A 4.1269887 4.1269887 0 0 1 131.63486 40.852802 A 2.07877 2.07877 0 0 1 128.98489 42.071849 L 128.55856 43.66245 A 10.812026 10.399579 15 0 0 138.51557 36.040693 A 10.812026 10.399579 15 0 0 130.76359 23.197033 A 10.812026 10.399579 15 0 0 126.5623 22.890592 z M 128.264 27.81949 C 128.65871 27.849785 129.06141 27.918114 129.46858 28.027229 C 132.137 28.742269 133.68501 30.898229 133.77168 33.210892 C 132.71311 32.208799 131.49836 31.367116 130.0117 30.968651 L 129.09961 30.724739 L 129.6541 30.90819 C 127.40537 30.014269 125.01602 30.140884 122.87312 30.913874 C 123.65662 29.258361 125.18124 28.05925 127.10748 27.839643 C 127.48283 27.796848 127.8693 27.789195 128.264 27.81949 z M 102.73068 58.299799 A 59.63882 59.63882 0 0 0 48.245116 102.42062 A 59.63882 59.63882 0 0 0 90.416184 175.46319 A 59.63882 59.63882 0 0 0 163.45875 133.29212 A 59.63882 59.63882 0 0 0 121.28717 60.250067 A 59.63882 59.63882 0 0 0 102.73068 58.299799 z M 106.17078 63.201308 C 108.70723 63.22896 111.26665 63.442673 113.83181 63.826076 A 5.0005 5.0005 0 0 0 113.74603 63.939248 L 109.43156 80.041107 A 5.0005 5.0005 0 0 0 112.96674 86.164247 L 116.77736 87.185373 A 5.0005 5.0005 0 0 0 122.9005 83.650189 L 127.19533 67.617059 C 150.05353 77.280615 163.59036 101.24322 159.87499 125.90032 A 5.0005 5.0005 0 0 0 159.58974 125.75976 L 143.49046 121.4453 A 5.0005 5.0005 0 0 0 137.36525 124.98255 L 136.34568 128.7911 A 5.0005 5.0005 0 0 0 139.88086 134.91424 L 155.98066 139.22871 A 5.0005 5.0005 0 0 0 156.08401 139.21475 C 146.58026 161.67627 123.26884 175.09842 99.060617 172.01947 A 5.0005 5.0005 0 0 0 99.355689 171.635 L 103.67015 155.53314 A 5.0005 5.0005 0 0 0 100.13497 149.41 L 96.326417 148.38887 A 5.0005 5.0005 0 0 0 90.20121 151.92406 L 85.886745 168.0254 A 5.0005 5.0005 0 0 0 85.980279 168.74008 C 62.575547 159.64715 48.495172 135.73436 51.703302 110.94516 A 5.0005 5.0005 0 0 0 52.560614 111.60352 L 68.660406 115.91799 A 5.0005 5.0005 0 0 0 74.785097 112.3828 L 75.80674 108.57218 A 5.0005 5.0005 0 0 0 72.269488 102.44904 L 56.169696 98.134575 A 5.0005 5.0005 0 0 0 54.826109 98.312342 C 56.456765 94.032662 58.629116 90.100536 61.164223 86.482574 L 91.704994 117.02334 C 91.336033 123.57349 95.622824 129.79089 102.18342 131.54907 C 109.68838 133.56019 117.53435 129.03043 119.54515 121.52539 C 121.55575 114.02062 117.02415 106.1749 109.51941 104.16418 C 108.21154 103.81379 106.90336 103.72793 105.6075 103.75594 A 5.0005 5.0005 0 0 0 105.00961 103.02523 L 68.128656 78.370924 C 77.641749 69.285269 90.229078 63.759853 103.64277 63.236448 C 104.48238 63.203686 105.32529 63.192091 106.17078 63.201308 z M 118.5757 65.234259 L 122.38529 66.255385 L 118.07134 82.355694 L 114.26176 81.335085 L 118.5757 65.234259 z M 62.119204 80.367185 L 102.23097 107.18105 C 102.23097 107.18105 97.651914 108.05648 95.552304 113.80029 L 62.119204 80.367185 z M 54.874685 102.96374 L 70.976027 107.2782 L 69.955418 111.08831 L 53.854075 106.77384 L 54.874685 102.96374 z M 104.65407 108.76028 A 9.1751924 9.175192 15 0 1 108.22647 108.99438 A 9.1751924 9.175192 15 0 1 114.71444 120.23142 A 9.1751924 9.175192 15 0 1 103.47688 126.71939 A 9.1751924 9.175192 15 0 1 96.989426 115.48184 A 9.1751924 9.175192 15 0 1 104.65407 108.76028 z M 142.19545 126.27549 L 158.29576 130.58996 L 157.27515 134.39903 L 141.17484 130.08508 L 142.19545 126.27549 z M 95.031406 153.21803 L 98.840992 154.23916 L 94.526527 170.33998 L 90.716941 169.31938 L 95.031406 153.21803 z " />
    </g>
  </g>
</svg>
